<?xml version="1.0" encoding="UTF-8"?>
<svg width="800px" height="465px" viewBox="0 0 800 465" version="1.1" xmlns="http://www.w3.org/2000/svg" xmlns:xlink="http://www.w3.org/1999/xlink">
    <title>Map-Sanyo Shinkansen</title>
    <g id="Map-Sanyo-Shinkansen" stroke="none" stroke-width="1" fill="none" fill-rule="evenodd">
        <rect fill="#FFFFFF" x="0" y="0" width="800" height="465"></rect>
        <g id="Map" transform="translate(350.000000, 67.000000)">
            <g id="map-11" transform="translate(20.036063, 0.528587)">
                <g transform="translate(184.361752, 225.404037) rotate(25.000000) translate(-184.361752, -225.404037) translate(72.616243, 28.805986)">
                    <polyline id="Fill-1" fill="#F3F5F3" points="58.687274 253.355373 60.2234925 255.021238 58.965509 255.713421 58.0856542 255.273967 58.687274 253.355373"></polyline>
                    <polyline id="Fill-2" fill="#F3F5F3" points="61.7213338 253.518405 60.6473353 252.202862 62.0215793 249.879226 64.0984656 249.631574 64.6622725 252.328663 63.2885928 253.649847 61.7213338 253.518405"></polyline>
                    <polyline id="Fill-3" fill="#F3F5F3" points="122.009165 94.7698508 120.571711 93.0780357 120.19584 90.4430013 122.949972 87.9360236 124.833278 87.3070226 124.139102 90.4430013 124.015504 93.329072 122.009165 94.7698508"></polyline>
                    <polyline id="Fill-4" fill="#F3F5F3" points="142.943388 111.900677 140.056064 110.145116 138.68182 107.259045 139.738323 106.508193 138.68182 100.297161 136.551883 94.3303964 133.919091 91.8843443 130.970251 89.8783108 128.901831 89.8140004 128.469522 87.496005 128.839186 82.787806 127.959895 79.3359166 129.211106 76.5107716 131.225347 75.3802623 131.780689 73.8148115 134.105334 73.3793059 135.61672 69.9262882 136.86906 68.2288319 136.489238 66.7231785 132.977156 64.0932212 131.657656 63.9042389 130.65251 62.646237 131.911058 60.0140232 134.420817 59.4476403 139.869822 62.4572546 145.699777 63.3976533 147.636699 61.8367156 147.890102 59.2597862 148.963536 58.1281486 147.890102 55.6200426 146.323972 54.7405696 145.699777 53.0476262 143.761162 49.9725732 142.749808 46.7745406 145.382036 43.7581568 146.825698 43.5719951 147.203826 42.1295238 145.891663 38.7425089 144.155657 33.4684912 144.780416 31.0918267 144.401723 24.5874492 143.028608 20.5866648 137.023133 11.3355559 136.025325 7.20389416 134.529177 4.95415806 135.392665 3.83154652 137.023133 3.83154652 138.774377 1.70591824 138.396249 0.204777884 142.279123 0.204777884 143.521868 2.83247867 149.157115 7.45380215 153.911943 8.45738302 156.28851 13.0871684 164.171084 20.8371369 168.556249 23.9657819 169.921463 26.465426 173.302611 27.21515 176.305066 30.4628257 181.43125 32.9664187 185.685481 33.4684912 189.066064 36.716731 191.690391 36.2191715 192.939909 37.0913109 197.325638 36.4662589 202.921943 32.6544568 205.739284 28.9504028 206.426689 25.8798628 207.245027 24.8728972 208.185834 26.3153684 208.185834 29.2668778 206.363479 34.409454 206.309864 39.1159606 207.498994 40.7479783 211.697916 43.3875257 214.592576 46.9753696 214.83187 49.5985574 214.460513 51.3456569 217.085404 51.3456569 218.714744 48.7224691 221.216602 46.3463687 223.345975 46.0953325 222.21949 48.5949765 220.59918 49.5985574 220.343519 52.9788028 218.213018 54.5978456 215.210563 55.8468214 214.592576 58.4767787 213.334028 60.3547555 210.956897 60.4743503 209.706814 59.4752825 207.329683 61.3532593 207.575749 63.1003587 203.206951 63.1003587 199.825802 62.2299117 196.947509 63.1003587 192.322487 69.6053003 190.570678 76.6089296 189.814421 82.3596341 190.817873 86.2380031 190.190856 89.1122271 190.447645 91.7387997 187.435596 90.4898238 185.685481 88.112031 180.311537 86.7389474 175.054984 83.9848823 170.423753 79.855477 167.420734 76.4808729 164.302018 76.981253 161.538292 76.3612781 160.164048 74.9808608 156.914398 74.8601377 153.03999 77.7337976 148.909921 83.3637791 147.156984 82.2372187 142.780284 79.4831536 140.403153 79.7330616 138.14849 81.7351462 138.14849 85.1142633 139.276103 87.8655078 142.903882 89.8636435 146.656386 88.8651398 151.033085 93.7420125 154.783332 94.7410804 158.790368 94.7410804 160.164048 96.7414726 157.547058 100.241313 156.659867 102.742649 154.290072 100.870878 149.658277 100.617021 147.906469 101.869382 148.284597 104.370718 147.033386 107.244378 142.943388 111.900677"></polyline>
                    <polyline id="Fill-5" fill="#F3F5F3" points="137.301368 207.967455 137.485918 204.640801 138.549757 202.630819 137.801966 202.130439 135.6709 203.388441 135.362753 201.190604 136.86906 195.416771 138.056497 194.229849 138.612403 196.675901 138.373109 199.184007 140.742904 199.938244 141.313484 201.817913 140.434193 205.64551 138.549757 207.526308 137.301368 207.967455"></polyline>
                    <polyline id="Fill-6" fill="#F3F5F3" points="9.3228488 325.49078 11.1988189 326.926482 12.3337695 326.240504 10.1948024 324.799161 9.19191467 324.865164 9.3228488 325.49078"></polyline>
                    <polyline id="Fill-7" fill="#F3F5F3" points="8.44976647 327.807083 9.00623653 328.755379 9.57738024 327.936832 8.44976647 327.807083"></polyline>
                    <polyline id="Fill-8" fill="#F3F5F3" points="6.37344461 329.883068 7.75558982 330.515454 8.44976647 329.512437 6.37344461 329.883068"></polyline>
                    <polyline id="Fill-9" fill="#F3F5F3" points="4.24350749 331.64145 4.62163623 333.208029 6.62910479 332.080904 4.24350749 331.64145"></polyline>
                    <polyline id="Fill-10" fill="#F3F5F3" points="1.74221407 340.237608 0.554212575 336.542016 0.677245509 334.272536 2.4916991 333.393062 2.73832934 335.466791 4.74466916 336.542016 5.99588024 338.917552 3.9957485 340.546185 1.74221407 340.237608"></polyline>
                    <polyline id="Fill-11" fill="#F3F5F3" points="28.1265704 342.364929 27.8720389 340.489773 28.9370075 339.357007 30.1882186 340.050318 29.8789431 342.182152 28.1265704 342.364929"></polyline>
                    <polyline id="Fill-12" fill="#F3F5F3" points="25.1782949 347.838083 26.5593114 346.326224 27.555991 346.826605 26.3047799 348.885666 25.1782949 347.838083"></polyline>
                    <polyline id="Fill-13" fill="#F3F5F3" points="23.8571018 338.854934 22.545503 340.489773 23.0477934 343.816426 24.2899746 346.194219 25.9266512 346.256837 26.6213922 343.375279 24.6765689 340.050318 24.6065868 338.979606 23.8571018 338.854934"></polyline>
                    <polyline id="Fill-14" fill="#F3F5F3" points="98.5651826 296.882802 96.9979237 293.425271 97.0594401 290.662744 98.2564716 288.787588 100.070361 288.469985 100.764537 290.662744 100.324892 293.178184 100.895472 294.612757 100.387537 296.81285 98.5651826 296.882802"></polyline>
                    <polyline id="Fill-15" fill="#F3F5F3" points="86.2291557 293.810569 88.9776437 291.171586 91.1775629 291.664068 91.0460644 293.362089 88.8540464 294.488085 86.2291557 293.810569"></polyline>
                    <polyline id="Fill-16" fill="#F3F5F3" points="70.4668308 330.33042 71.8410749 330.962806 72.9681243 329.695214 75.0980614 330.4534 76.7195 329.952456 76.4723054 327.821186 73.3541542 324.4573 74.8514311 321.45502 76.3498368 316.448398 80.4787769 313.94819 81.5979251 312.064571 85.4887006 312.57567 90.3671257 315.693597 91.7334686 318.078159 93.8628413 317.081912 95.4854087 310.956063 99.3677186 307.320833 99.7396392 305.075609 98.4872994 303.818172 97.7389431 301.448277 93.9864386 298.440355 91.3638054 298.314555 88.8613832 296.448424 84.35375 296.186106 80.1000838 299.697792 80.1000838 301.819472 78.4718728 304.31968 75.345256 305.322133 72.7209296 307.196725 71.1000554 306.695216 69.0925868 302.066559 67.4643757 302.190103 62.8399177 307.453402 62.7084192 310.575842 59.7065284 312.699214 58.9581722 316.203003 63.8360329 317.451979 64.7158877 320.832788 63.7124356 321.826215 63.7124356 323.578391 66.4609237 327.707797 70.7134611 328.200279 70.4668308 330.33042"></polyline>
                    <polyline id="Fill-17" fill="#F3F5F3" points="47.8648907 389.178958 45.7343892 386.538847 43.5412425 386.977173 42.7240329 389.054286 44.6688563 392.505048 47.6176961 393.059584 48.4986796 391.500338 47.8648907 389.178958"></polyline>
                    <polyline id="Fill-18" fill="#F3F5F3" points="50.7522141 385.289307 50.0032934 379.704455 50.1189895 377.389281 52.0643772 379.069813 52.3804251 382.019066 51.5620868 384.348344 50.7522141 385.289307"></polyline>
                    <polyline id="Fill-19" fill="#F3F5F3" points="44.6084686 375.561511 47.8259491 373.601736 51.2070973 368.847279 48.0810449 365.714685 47.9495464 363.840657 49.5783219 363.098266 52.0801796 363.840657 53.5774566 364.973423 54.4499746 361.470762 54.3263772 355.961503 53.3296976 353.22267 53.5774566 343.347073 53.2066647 338.08603 55.0820704 334.959077 58.3317201 331.70294 57.5827994 329.087086 55.8304266 328.578244 55.7079581 325.327747 53.8325524 324.95768 54.4499746 322.706816 48.7447455 322.791435 47.9264072 321.540203 50.682232 319.842182 51.6241677 317.652808 50.7522141 313.129642 48.4986796 311.750353 45.7343892 312.251861 45.7343892 313.377858 43.418774 315.076442 40.9716602 314.705247 37.149738 310.553841 37.7141093 308.107789 43.0406452 305.408444 47.8039386 304.534612 52.9368952 306.356176 55.5685584 307.544791 56.0781856 306.101191 55.9472515 303.716065 56.2023473 300.207763 55.6994925 297.81361 56.6956078 295.939582 59.0891063 295.755113 60.4622216 297.81361 62.7168847 297.93941 65.6030793 296.379037 71.3083084 295.307761 76.749976 293.547122 80.270524 293.425271 81.6442036 293.988269 83.5269461 293.116694 83.6511078 291.990698 87.2258353 289.966612 88.1051257 288.091456 92.112726 284.765931 96.2484386 283.376487 101.451377 284.326476 104.462862 283.509621 105.844443 284.765931 105.844443 287.651437 103.274296 291.354927 102.517475 294.303052 104.083605 295.368686 104.462862 298.509742 104.717958 301.772649 104.207202 303.093269 105.087621 306.356176 108.601397 307.929525 113.425078 312.438023 116.6815 313.377858 118.812566 312.251861 122.193714 307.173596 122.510891 303.841301 124.392504 302.653815 124.895924 300.955794 124.200618 298.632158 126.454717 294.427724 129.463945 293.988269 132.159382 293.988269 133.100189 292.234964 132.290316 290.979219 131.541395 287.407171 125.328232 284.705569 124.516102 282.946623 125.898811 278.301606 127.89725 276.543224 129.211106 276.109975 128.531039 277.553575 128.901831 281.319683 130.098298 282.319879 131.657656 281.257629 132.413913 280.247278 134.790481 280.817046 136.551883 282.00566 138.373109 281.449432 139.55321 281.758009 138.866934 283.194839 135.740882 284.012258 135.362753 284.891731 136.489238 285.460934 139.121466 284.705569 143.398271 282.436653 152.159006 283.184684 156.659867 282.692202 155.408656 281.566206 154.537831 278.055083 155.408656 274.056555 159.17019 272.183091 162.047355 272.685728 162.665341 276.188389 161.661889 279.434372 163.045163 281.936273 165.668925 281.679595 168.301153 278.055083 166.301585 272.051086 167.297701 268.305851 171.557575 265.055918 173.928499 264.930118 174.67629 263.305998 173.056545 261.301657 173.928499 257.175637 176.058436 255.802553 179.308085 256.427605 180.057006 258.301633 178.435567 260.68281 177.555148 265.431062 178.552392 275.307787 180.187376 276.062589 182.442603 274.560884 183.93988 271.310388 186.810837 271.062736 190.068952 267.556691 191.319034 263.057783 190.570678 260.181302 194.322054 256.682026 193.821457 254.427777 191.944922 252.676729 187.938451 247.170855 186.564207 243.047091 185.437722 234.668121 186.696269 224.916632 186.934434 218.288711 183.93988 206.157737 179.678877 200.406469 179.308085 195.903047 180.311537 190.278707 185.685481 187.775114 188.317144 187.775114 189.690259 190.151215 190.686374 188.901111 189.814421 184.901454 189.189662 182.274318 188.062048 180.923799 187.190094 177.473038 187.444626 175.711271 187.383674 173.078493 188.633192 170.947788 188.571675 169.878768 188.942467 167.181116 187.938451 165.677155 187.69182 161.390922 188.447513 159.265294 187.065933 156.763958 186.062481 150.014185 182.936428 144.510568 181.183491 144.510568 179.308085 143.509244 178.929392 136.135548 175.679743 133.133831 168.639775 125.206727 166.694952 121.691655 165.312807 116.291273 164.934114 111.024025 165.18921 109.265079 163.190207 110.523081 161.614482 110.712627 160.805174 109.701713 157.733301 108.32468 156.04188 108.135698 156.28851 109.206974 154.598783 113.470077 154.659735 116.418202 156.166042 117.864057 157.794817 117.112641 161.677692 113.659623 163.430064 117.989294 162.125238 121.128093 160.049481 122.444764 157.794817 120.749564 156.984945 120.749564 158.042012 124.829326 156.481525 126.459651 154.03554 125.515304 153.472298 122.50569 152.901154 118.991182 151.843522 117.232236 149.711892 117.926676 147.828585 116.857656 147.141181 119.619619 148.391828 124.70409 148.523891 128.215777 146.447569 129.029247 144.385356 132.104864 144.448001 134.052793 148.763749 138.447902 150.215311 141.077295 148.709004 145.786622 146.384924 147.294532 143.69118 146.726457 143.128501 148.609511 145.637132 151.810364 148.269359 151.179106 150.530795 148.636589 153.911943 156.263013 155.16259 164.643111 154.413105 169.267255 154.783332 177.525502 151.781442 189.650835 152.669198 194.28062 151.287052 199.532637 147.033386 201.784065 145.156852 206.908025 145.405175 212.65873 143.275802 216.038411 142.64935 219.537687 138.48937 223.465135 130.221895 228.420986 126.957007 229.362513 125.328232 232.685217 121.128746 230.306296 117.051163 225.283315 117.184355 223.152045 119.006145 222.272008 120.812698 219.070026 120.503987 217.252975 122.632795 215.059652 122.448246 214.173409 118.433873 215.120577 115.547114 218.067574 111.857819 219.515122 111.162513 222.836134 113.610192 226.980771 114.111918 235.139731 113.610192 239.085795 109.603156 243.22874 109.534302 245.489758 108.090076 247.118391 107.526834 253.204751 109.031448 254.899387 109.286543 257.410313 108.160058 258.355789 108.909543 259.354857 108.027431 261.488947 106.338832 261.677365 107.464189 263.247329 104.840427 264.312964 103.019201 262.929162 100.511135 264.816729 99.0138578 264.250346 98.3800689 260.547984 97.3760524 260.111915 95.1219536 261.741676 92.9914521 261.804294 91.9259192 261.051749 84.4079296 263.683963 80.4556377 265.192437 76.511247 266.56947 72.057229 266.884816 67.7967904 268.204308 66.2904835 267.260524 62.6548039 267.702235 56.1397021 272.222016 54.9511362 276.295009 52.5661033 277.931539 52.0034251 280.439081 47.2401317 285.841156 44.2991931 286.95869 41.7894341 290.415093 41.033741 292.683445 38.4624656 295.307761 33.831235 296.256621 32.1951228 298.632158 33.3216078 304.08726 35.0824461 305.030479 35.6372231 306.981793 34.5801557 308.856949 31.692268 309.041982 28.0571527 311.872768 27.1157814 313.887828 24.8616826 315.632107 21.6041317 319.148871 20.3529207 321.857242 17.5361437 321.911398 14.3942889 323.66301 15.9615479 323.66301 17.5970958 323.854813 18.7867904 326.926482 20.2919686 331.010193 19.0949371 332.142394 18.5316946 329.447562 17.0880329 327.3665 16.2775958 330.136361 17.1574506 333.277417 19.3415674 334.204276 19.7208249 336.224977 18.5937754 338.416608 20.2919686 337.467747 21.4810988 335.152573 24.112762 334.272536 25.8036183 334.895895 24.4835539 336.162923 25.7336362 337.103886 28.4273802 336.286467 28.1265704 333.083357 26.2438278 331.385901 23.1093099 332.20332 23.2938593 330.816133 24.1663772 329.317813 23.418021 326.672061 24.8616826 324.799161 27.7478772 325.924029 30.7587979 331.070554 31.1916707 334.895895 32.6421048 336.655405 32.8898638 342.558988 30.3885704 348.067118 27.3782141 348.384157 28.1265704 350.336599 30.7587979 354.920126 31.8864117 360.937098 34.7652695 364.327498 34.7031886 367.27393 33.2600913 369.102828 35.4521093 371.796531 38.2073698 371.418003 40.5314506 372.806882 41.6585 371.478364 41.6585 369.657928 39.0962545 365.714685 39.0962545 360.119679 40.6629491 358.370323 42.4153219 359.804897 41.4113054 361.316191 41.3497889 362.952722 43.9814521 365.714685 45.0396482 370.352368 44.1676946 373.1211 44.6084686 375.561511"></polyline>
                    <polyline id="Fill-22" points="58.965509 255.713421 58.0856542 255.273967 58.687274 253.355373 60.2234925 255.021238 58.965509 255.713421"></polyline>
                    <polyline id="Fill-24" points="63.2885928 253.649847 61.7213338 253.518405 60.6473353 252.202862 62.0215793 249.879226 64.0984656 249.631574 64.6622725 252.328663 63.2885928 253.649847"></polyline>
                    <polyline id="Fill-26" points="122.009165 94.7698508 120.571711 93.0780357 120.19584 90.4430013 122.949972 87.9360236 124.833278 87.3070226 124.139102 90.4430013 124.015504 93.329072 122.009165 94.7698508"></polyline>
                    <polyline id="Fill-28" points="142.943388 111.900677 140.056064 110.145116 138.68182 107.259045 139.738323 106.508193 138.68182 100.297161 136.551883 94.3303964 133.919091 91.8843443 130.970251 89.8783108 128.901831 89.8140004 128.469522 87.496005 128.839186 82.787806 127.959895 79.3359166 129.211106 76.5107716 131.225347 75.3802623 131.780689 73.8148115 134.105334 73.3793059 135.61672 69.9262882 136.86906 68.2288319 136.489238 66.7231785 132.977156 64.0932212 131.657656 63.9042389 130.65251 62.646237 131.911058 60.0140232 134.420817 59.4476403 139.869822 62.4572546 145.699777 63.3976533 147.636699 61.8367156 147.890102 59.2597862 148.963536 58.1281486 147.890102 55.6200426 146.323972 54.7405696 145.699777 53.0476262 143.761162 49.9725732 142.749808 46.7745406 145.382036 43.7581568 146.825698 43.5719951 147.203826 42.1295238 145.891663 38.7425089 144.155657 33.4684912 144.780416 31.0918267 144.401723 24.5874492 143.028608 20.5866648 137.023133 11.3355559 136.025325 7.20389416 134.529177 4.95415806 135.392665 3.83154652 137.023133 3.83154652 138.774377 1.70591824 138.396249 0.204777884 142.279123 0.204777884 143.521868 2.83247867 149.157115 7.45380215 153.911943 8.45738302 156.28851 13.0871684 164.171084 20.8371369 168.556249 23.9657819 169.921463 26.465426 173.302611 27.21515 176.305066 30.4628257 181.43125 32.9664187 185.685481 33.4684912 189.066064 36.716731 191.690391 36.2191715 192.939909 37.0913109 197.325638 36.4662589 202.921943 32.6544568 205.739284 28.9504028 206.426689 25.8798628 207.245027 24.8728972 208.185834 26.3153684 208.185834 29.2668778 206.363479 34.409454 206.309864 39.1159606 207.498994 40.7479783 211.697916 43.3875257 214.592576 46.9753696 214.83187 49.5985574 214.460513 51.3456569 217.085404 51.3456569 218.714744 48.7224691 221.216602 46.3463687 223.345975 46.0953325 222.21949 48.5949765 220.59918 49.5985574 220.343519 52.9788028 218.213018 54.5978456 215.210563 55.8468214 214.592576 58.4767787 213.334028 60.3547555 210.956897 60.4743503 209.706814 59.4752825 207.329683 61.3532593 207.575749 63.1003587 203.206951 63.1003587 199.825802 62.2299117 196.947509 63.1003587 192.322487 69.6053003 190.570678 76.6089296 189.814421 82.3596341 190.817873 86.2380031 190.190856 89.1122271 190.447645 91.7387997 187.435596 90.4898238 185.685481 88.112031 180.311537 86.7389474 175.054984 83.9848823 170.423753 79.855477 167.420734 76.4808729 164.302018 76.981253 161.538292 76.3612781 160.164048 74.9808608 156.914398 74.8601377 153.03999 77.7337976 148.909921 83.3637791 147.156984 82.2372187 142.780284 79.4831536 140.403153 79.7330616 138.14849 81.7351462 138.14849 85.1142633 139.276103 87.8655078 142.903882 89.8636435 146.656386 88.8651398 151.033085 93.7420125 154.783332 94.7410804 158.790368 94.7410804 160.164048 96.7414726 157.547058 100.241313 156.659867 102.742649 154.290072 100.870878 149.658277 100.617021 147.906469 101.869382 148.284597 104.370718 147.033386 107.244378 142.943388 111.900677"></polyline>
                    <polyline id="Fill-30" points="137.301368 207.967455 137.485918 204.640801 138.549757 202.630819 137.801966 202.130439 135.6709 203.388441 135.362753 201.190604 136.86906 195.416771 138.056497 194.229849 138.612403 196.675901 138.373109 199.184007 140.742904 199.938244 141.313484 201.817913 140.434193 205.64551 138.549757 207.526308 137.301368 207.967455"></polyline>
                    <polyline id="Fill-32" points="11.1988189 326.926482 9.3228488 325.49078 9.19191467 324.865164 10.1948024 324.799161 12.3337695 326.240504 11.1988189 326.926482"></polyline>
                    <polyline id="Fill-34" points="9.00623653 328.755379 8.44976647 327.807083 9.57738024 327.936832 9.00623653 328.755379"></polyline>
                    <polyline id="Fill-36" points="7.75558982 330.515454 6.37344461 329.883068 8.44976647 329.512437 7.75558982 330.515454"></polyline>
                    <polyline id="Fill-38" points="4.62163623 333.208029 4.24350749 331.64145 6.62910479 332.080904 4.62163623 333.208029"></polyline>
                    <polyline id="Fill-40" points="3.9957485 340.546185 1.74221407 340.237608 0.554212575 336.542016 0.677245509 334.272536 2.4916991 333.393062 2.73832934 335.466791 4.74466916 336.542016 5.99588024 338.917552 3.9957485 340.546185"></polyline>
                    <polyline id="Fill-42" points="28.1265704 342.364929 27.8720389 340.489773 28.9370075 339.357007 30.1882186 340.050318 29.8789431 342.182152 28.1265704 342.364929"></polyline>
                    <polyline id="Fill-44" points="26.3047799 348.885666 25.1782949 347.838083 26.5593114 346.326224 27.555991 346.826605 26.3047799 348.885666"></polyline>
                    <polyline id="Fill-46" points="25.9266512 346.256837 24.2899746 346.194219 23.0477934 343.816426 22.545503 340.489773 23.8571018 338.854934 24.6065868 338.979606 24.6765689 340.050318 26.6213922 343.375279 25.9266512 346.256837"></polyline>
                    <polyline id="Fill-48" points="98.5651826 296.882802 96.9979237 293.425271 97.0594401 290.662744 98.2564716 288.787588 100.070361 288.469985 100.764537 290.662744 100.324892 293.178184 100.895472 294.612757 100.387537 296.81285 98.5651826 296.882802"></polyline>
                    <polyline id="Fill-50" points="88.8540464 294.488085 86.2291557 293.810569 88.9776437 291.171586 91.1775629 291.664068 91.0460644 293.362089 88.8540464 294.488085"></polyline>
                </g>
            </g>
            <text id="Hakata-(Fukuoka)" font-family="SourceSansPro-Regular, Source Sans Pro" font-size="14" font-weight="normal" fill="#333333">
                <tspan x="23.042" y="293">Hakata </tspan>
                <tspan x="5.864" y="311">(Fukuoka)</tspan>
            </text>
            <text id="Osaka" font-family="SourceSansPro-Regular, Source Sans Pro" font-size="14" font-weight="normal" line-spacing="28" fill="#333333">
                <tspan x="129" y="315">Osaka</tspan>
            </text>
            <polyline id="Path-5" stroke="#3F9DF5" stroke-width="3" opacity="0.211637127" points="227 259 227 277.900166 242.383948 293.27744 242.383948 302.462201"></polyline>
            <polyline id="Path-6" stroke="#3F9DF5" stroke-width="3" opacity="0.212861474" points="239.003971 304.244589 239.003971 294.637863 226.592696 282.231972 211.339763 282.231972 211.339763 270.833288 205.385921 264.88203 201.515696 268.750576 196.763058 264 191.083788 264 186 269.081582"></polyline>
            <polyline id="Path-7" stroke="#3F9DF5" stroke-width="3" opacity="0.209479944" points="247 304.355644 247 280.620398 259.192491 268.433197 259.192491 256.394276 269.66879 245.922523 276.242294 239.35187 280.886278 234.709902 280.886278 205.612562 286.219528 200.281626 286.219528 190.667858 282.550077 187 277.193834 187"></polyline>
            <polyline id="Path-8" stroke="#3F9DF5" stroke-width="3" opacity="0.21" points="236.484537 303.601932 230.840824 309.243196 224.62633 309.243196 221.381191 312.486928 197.542502 312.486928 188.9993 303.947432 183.903289 298.853632 174.671364 298.853632 160.854871 298.853632 158 296"></polyline>
            <polyline id="Path-9" stroke="#3F9DF5" stroke-width="3" points="158.184918 296.428282 154.79869 293.043524 144.640008 293.043524 140.599725 297.082054 127.089445 297.082054 121.00475 291 107.391329 291 105.077581 293.312744 93.8465873 293.312744 88.6384625 298.518609 81.0455293 298.518609 77 302.562384"></polyline>
            <polyline id="Path-10" stroke="#3F9DF5" stroke-width="3" opacity="0.209479944" points="77.7779627 304 77.7779627 325.171657 73.2620919 329.685569 69 333.945811 69 337.883947 73.3721211 342.254171"></polyline>
            <ellipse id="Oval-3-Copy" fill="#9B9B9B" cx="246.821856" cy="304.820632" rx="2.82185629" ry="2.82063201"></ellipse>
            <ellipse id="Oval-3-Copy-2" fill="#9B9B9B" cx="242.821856" cy="304.820632" rx="2.82185629" ry="2.82063201"></ellipse>
            <ellipse id="Oval-3-Copy-4" fill="#9B9B9B" cx="227.821856" cy="256.820632" rx="2.82185629" ry="2.82063201"></ellipse>
            <ellipse id="Oval-3-Copy-5" fill="#9B9B9B" cx="184.821856" cy="269.820632" rx="2.82185629" ry="2.82063201"></ellipse>
            <ellipse id="Oval-3-Copy-7" fill="#9B9B9B" cx="173.821856" cy="298.820632" rx="2.82185629" ry="2.82063201"></ellipse>
            <ellipse id="Oval-3-Copy-8" fill="#9B9B9B" cx="158.821856" cy="296.820632" rx="2.82185629" ry="2.82063201"></ellipse>
            <ellipse id="Oval-3-Copy-9" fill="#9B9B9B" cx="112.821856" cy="290.820632" rx="2.82185629" ry="2.82063201"></ellipse>
            <ellipse id="Oval-3-Copy-10" fill="#9B9B9B" cx="76.8218563" cy="302.820632" rx="2.82185629" ry="2.82063201"></ellipse>
            <ellipse id="Oval-3-Copy-11" fill="#9B9B9B" cx="72.8218563" cy="342.820632" rx="2.82185629" ry="2.82063201"></ellipse>
            <ellipse id="Oval-3-Copy-6" fill="#9B9B9B" cx="188.821856" cy="303.820632" rx="2.82185629" ry="2.82063201"></ellipse>
            <ellipse id="Oval-3-Copy-3" fill="#9B9B9B" cx="238.821856" cy="304.820632" rx="2.82185629" ry="2.82063201"></ellipse>
            <polyline id="Path-12" stroke="#3F9DF5" stroke-width="3" opacity="0.21" points="276.350744 186.87399 270 180.526001 270 157.161246 279.165222 148"></polyline>
            <line x1="280.898889" y1="213.5" x2="260" y2="213.5" id="Path-13" stroke="#3F9DF5" stroke-width="3" opacity="0.21"></line>
            <line x1="250.5" y1="274.918041" x2="250.5" y2="243" id="Path-14" stroke="#3F9DF5" stroke-width="3" opacity="0.209479944"></line>
            <ellipse id="Oval-3-Copy-4" fill="#9B9B9B" cx="250.821856" cy="242.820632" rx="2.82185629" ry="2.82063201"></ellipse>
            <ellipse id="Oval-3-Copy-4" fill="#9B9B9B" cx="258.821856" cy="213.820632" rx="2.82185629" ry="2.82063201"></ellipse>
            <ellipse id="Oval-3-Copy-4" fill="#9B9B9B" cx="267.821856" cy="246.820632" rx="2.82185629" ry="2.82063201"></ellipse>
            <ellipse id="Oval-3-Copy-4" fill="#9B9B9B" cx="280.821856" cy="213.820632" rx="2.82185629" ry="2.82063201"></ellipse>
            <ellipse id="Oval-3-Copy-12" fill="#9B9B9B" cx="275.821856" cy="185.820632" rx="2.82185629" ry="2.82063201"></ellipse>
            <ellipse id="Oval-3-Copy-13" fill="#9B9B9B" cx="279.821856" cy="146.820632" rx="2.82185629" ry="2.82063201"></ellipse>
        </g>
        <g id="Lines" transform="translate(84.000000, 120.000000)">
            <line x1="306.5" y1="144.5" x2="442" y2="144.5" id="Path-24" stroke="#0F9FB2" stroke-width="3"></line>
            <polyline id="Path-23" stroke="#F99300" stroke-width="3" points="41 202 41 183.993057 74.4706693 150.522388 215 150.522388 425.5 150.522388"></polyline>
            <polyline id="Path-23" stroke="#73D9DB" stroke-width="3" points="47 202 47 185.993057 77.4706693 156.522388 442.5 156.522388"></polyline>
            <polyline id="Path-23" stroke="#CD9400" stroke-width="3" points="54 217.5 54 187.993057 80.4706693 162.522388 426.5 162.522388"></polyline>
            <polyline id="Path-23" stroke="#70CF00" stroke-width="3" points="61 217.5 61 189.993057 83.4706693 168.522388 426.5 168.522388"></polyline>
            <ellipse id="Oval-3-Copy-13" fill="#232323" cx="40.8218563" cy="201.820632" rx="2.82185629" ry="2.82063201"></ellipse>
            <ellipse id="Oval-3-Copy-13" fill="#232323" cx="46.8218563" cy="201.820632" rx="2.82185629" ry="2.82063201"></ellipse>
            <ellipse id="Oval-3-Copy-13" fill="#232323" cx="53.8218563" cy="201.820632" rx="2.82185629" ry="2.82063201"></ellipse>
            <ellipse id="Oval-3-Copy-13" fill="#232323" cx="60.8218563" cy="201.820632" rx="2.82185629" ry="2.82063201"></ellipse>
            <ellipse id="Oval-3-Copy-13" fill="#232323" cx="65.8218563" cy="184.820632" rx="2.82185629" ry="2.82063201"></ellipse>
            <ellipse id="Oval-3-Copy-13" fill="#232323" cx="60.8218563" cy="180.820632" rx="2.82185629" ry="2.82063201"></ellipse>
            <ellipse id="Oval-3-Copy-13" fill="#232323" cx="55.8218563" cy="176.820632" rx="2.82185629" ry="2.82063201"></ellipse>
            <ellipse id="Oval-3-Copy-13" fill="#232323" cx="50.8218563" cy="172.820632" rx="2.82185629" ry="2.82063201"></ellipse>
            <ellipse id="Oval-3-Copy-13" fill="#232323" cx="81.8218563" cy="150.820632" rx="2.82185629" ry="2.82063201"></ellipse>
            <ellipse id="Oval-3-Copy-13" fill="#232323" cx="122.821856" cy="150.820632" rx="2.82185629" ry="2.82063201"></ellipse>
            <ellipse id="Oval-3-Copy-13" fill="#232323" cx="142.821856" cy="150.820632" rx="2.82185629" ry="2.82063201"></ellipse>
            <ellipse id="Oval-3-Copy-13" fill="#232323" cx="163.321856" cy="150.820632" rx="2.82185629" ry="2.82063201"></ellipse>
            <ellipse id="Oval-3-Copy-13" fill="#232323" cx="204.071856" cy="150.820632" rx="2.82185629" ry="2.82063201"></ellipse>
            <ellipse id="Oval-3-Copy-13" fill="#232323" cx="183.821856" cy="156.820632" rx="2.82185629" ry="2.82063201"></ellipse>
            <ellipse id="Oval-3-Copy-13" fill="#232323" cx="183.821856" cy="162.820632" rx="2.82185629" ry="2.82063201"></ellipse>
            <ellipse id="Oval-3-Copy-13" fill="#232323" cx="183.821856" cy="168.820632" rx="2.82185629" ry="2.82063201"></ellipse>
            <ellipse id="Oval-3-Copy-13" fill="#232323" cx="224.446856" cy="150.820632" rx="2.82185629" ry="2.82063201"></ellipse>
            <ellipse id="Oval-3-Copy-13" fill="#232323" cx="265.196856" cy="150.820632" rx="2.82185629" ry="2.82063201"></ellipse>
            <ellipse id="Oval-3-Copy-13" fill="#232323" cx="265.196856" cy="162.820632" rx="2.82185629" ry="2.82063201"></ellipse>
            <ellipse id="Oval-3-Copy-14" fill="#232323" cx="244.821856" cy="150.820632" rx="2.82185629" ry="2.82063201"></ellipse>
            <ellipse id="Oval-3-Copy-15" fill="#232323" cx="183.821856" cy="150.820632" rx="2.82185629" ry="2.82063201"></ellipse>
            <ellipse id="Oval-3-Copy-16" fill="#232323" cx="102.196856" cy="150.820632" rx="2.82185629" ry="2.82063201"></ellipse>
            <ellipse id="Oval-3-Copy-13" fill="#232323" cx="285.571856" cy="150.820632" rx="2.82185629" ry="2.82063201"></ellipse>
            <ellipse id="Oval-3-Copy-13" fill="#232323" cx="305.946856" cy="150.820632" rx="2.82185629" ry="2.82063201"></ellipse>
            <ellipse id="Oval-3-Copy-13" fill="#232323" cx="305.946856" cy="150.820632" rx="2.82185629" ry="2.82063201"></ellipse>
            <ellipse id="Oval-3-Copy-13" fill="#232323" cx="305.946856" cy="144.820632" rx="2.82185629" ry="2.82063201"></ellipse>
            <ellipse id="Oval-3-Copy-13" fill="#232323" cx="305.946856" cy="162.820632" rx="2.82185629" ry="2.82063201"></ellipse>
            <ellipse id="Oval-3-Copy-13" fill="#232323" cx="305.946856" cy="156.820632" rx="2.82185629" ry="2.82063201"></ellipse>
            <ellipse id="Oval-3-Copy-13" fill="#232323" cx="305.946856" cy="168.820632" rx="2.82185629" ry="2.82063201"></ellipse>
            <ellipse id="Oval-3-Copy-13" fill="#232323" cx="326.321856" cy="144.820632" rx="2.82185629" ry="2.82063201"></ellipse>
            <ellipse id="Oval-3-Copy-13" fill="#232323" cx="326.321856" cy="150.820632" rx="2.82185629" ry="2.82063201"></ellipse>
            <ellipse id="Oval-3-Copy-13" fill="#232323" cx="346.821856" cy="144.820632" rx="2.82185629" ry="2.82063201"></ellipse>
            <ellipse id="Oval-3-Copy-13" fill="#232323" cx="346.821856" cy="150.820632" rx="2.82185629" ry="2.82063201"></ellipse>
            <ellipse id="Oval-3-Copy-13" stroke="#232323" cx="347" cy="168.999132" rx="2" ry="1.99913229"></ellipse>
            <ellipse id="Oval-3-Copy-13" stroke="#232323" cx="347" cy="162.999132" rx="2" ry="1.99913229"></ellipse>
            <ellipse id="Oval-3-Copy-13" stroke="#232323" cx="347" cy="156.999132" rx="2" ry="1.99913229"></ellipse>
            <ellipse id="Oval-3-Copy-13" stroke="#232323" cx="265" cy="156.999132" rx="2" ry="1.99913229"></ellipse>
            <ellipse id="Oval-3-Copy-13" stroke="#232323" cx="123" cy="156.999132" rx="2" ry="1.99913229"></ellipse>
            <ellipse id="Oval-3-Copy-13" stroke="#232323" cx="143" cy="156.999132" rx="2" ry="1.99913229"></ellipse>
            <ellipse id="Oval-3-Copy-13" stroke="#232323" cx="123" cy="162.999132" rx="2" ry="1.99913229"></ellipse>
            <ellipse id="Oval-3-Copy-13" stroke="#232323" cx="143" cy="162.999132" rx="2" ry="1.99913229"></ellipse>
            <ellipse id="Oval-3-Copy-13" fill="#232323" cx="367.071856" cy="144.820632" rx="2.82185629" ry="2.82063201"></ellipse>
            <ellipse id="Oval-3-Copy-13" fill="#232323" cx="387.821856" cy="150.820632" rx="2.82185629" ry="2.82063201"></ellipse>
            <ellipse id="Oval-3-Copy-13" fill="#232323" cx="387.821856" cy="144.820632" rx="2.82185629" ry="2.82063201"></ellipse>
            <ellipse id="Oval-3-Copy-13" fill="#232323" cx="424.821856" cy="150.820632" rx="2.82185629" ry="2.82063201"></ellipse>
            <ellipse id="Oval-3-Copy-13" fill="#232323" cx="424.821856" cy="144.820632" rx="2.82185629" ry="2.82063201"></ellipse>
            <ellipse id="Oval-3-Copy-13" fill="#232323" cx="424.821856" cy="156.820632" rx="2.82185629" ry="2.82063201"></ellipse>
            <ellipse id="Oval-3-Copy-13" fill="#232323" cx="424.821856" cy="162.820632" rx="2.82185629" ry="2.82063201"></ellipse>
            <ellipse id="Oval-3-Copy-13" fill="#232323" cx="424.821856" cy="168.820632" rx="2.82185629" ry="2.82063201"></ellipse>
            <ellipse id="Oval-3-Copy-13" fill="#232323" cx="387.821856" cy="156.820632" rx="2.82185629" ry="2.82063201"></ellipse>
            <ellipse id="Oval-3-Copy-13" fill="#232323" cx="366.821856" cy="150.820632" rx="2.82185629" ry="2.82063201"></ellipse>
            <ellipse id="Oval-3-Copy-13" fill="#232323" cx="387.821856" cy="162.820632" rx="2.82185629" ry="2.82063201"></ellipse>
            <ellipse id="Oval-3-Copy-13" fill="#232323" cx="387.821856" cy="168.820632" rx="2.82185629" ry="2.82063201"></ellipse>
            <polygon id="Triangle" fill="#62CA00" transform="translate(60.500000, 218.500000) rotate(180.000000) translate(-60.500000, -218.500000) " points="60.5 215 64 222 57 222"></polygon>
            <polygon id="Triangle" fill="#0095AA" transform="translate(445.500000, 144.500000) rotate(90.000000) translate(-445.500000, -144.500000) " points="445.5 141 449 148 442 148"></polygon>
            <polygon id="Triangle" fill="#00CACD" transform="translate(445.500000, 156.500000) rotate(90.000000) translate(-445.500000, -156.500000) " points="445.5 153 449 160 442 160"></polygon>
            <polygon id="Triangle" fill="#C88A00" transform="translate(53.500000, 218.500000) rotate(180.000000) translate(-53.500000, -218.500000) " points="53.5 215 57 222 50 222"></polygon>
            <text id="Shin-Shimonoseki" transform="translate(81.000000, 67.750000) rotate(-90.000000) translate(-81.000000, -67.750000) " font-family="SourceSansPro-Regular, Source Sans Pro" font-size="14" font-weight="normal" line-spacing="28" fill="#333333">
                <tspan x="13.25" y="67.75">Shin-Shimonoseki</tspan>
            </text>
            <text id="Asa" transform="translate(102.000000, 96.242268) rotate(-90.000000) translate(-102.000000, -96.242268) " font-family="SourceSansPro-Regular, Source Sans Pro" font-size="14" font-weight="normal" line-spacing="28" fill="#333333">
                <tspan x="62.7577317" y="96.2422683">Asa</tspan>
            </text>
            <text id="Shin-Yamaguchi" transform="translate(121.000000, 67.750000) rotate(-90.000000) translate(-121.000000, -67.750000) " font-family="SourceSansPro-Regular, Source Sans Pro" font-size="14" font-weight="normal" line-spacing="28" fill="#333333">
                <tspan x="53.25" y="67.75">Shin-Yamaguchi</tspan>
            </text>
            <text id="Tokuyama" transform="translate(142.000000, 93.500000) rotate(-90.000000) translate(-142.000000, -93.500000) " font-family="SourceSansPro-Regular, Source Sans Pro" font-size="14" font-weight="normal" line-spacing="28" fill="#333333">
                <tspan x="99.5" y="93.5">Tokuyama</tspan>
            </text>
            <text id="Shin-Iwakuni" transform="translate(163.000000, 93.500000) rotate(-90.000000) translate(-163.000000, -93.500000) " font-family="SourceSansPro-Regular, Source Sans Pro" font-size="14" font-weight="normal" line-spacing="28" fill="#333333">
                <tspan x="120.5" y="93.5">Shin Iwakuni</tspan>
            </text>
            <text id="Higashi-Hiroshima" transform="translate(203.000000, 71.500000) rotate(-90.000000) translate(-203.000000, -71.500000) " font-family="SourceSansPro-Regular, Source Sans Pro" font-size="14" font-weight="normal" line-spacing="28" fill="#333333">
                <tspan x="138.5" y="71.5">Higashi-Hiroshima</tspan>
            </text>
            <text id="Mihara" transform="translate(224.000000, 93.500000) rotate(-90.000000) translate(-224.000000, -93.500000) " font-family="SourceSansPro-Regular, Source Sans Pro" font-size="14" font-weight="normal" line-spacing="28" fill="#333333">
                <tspan x="181.5" y="93.5">Mihara</tspan>
            </text>
            <text id="Shin-Onomichi" transform="translate(244.000000, 68.250000) rotate(-90.000000) translate(-244.000000, -68.250000) " font-family="SourceSansPro-Regular, Source Sans Pro" font-size="14" font-weight="normal" line-spacing="28" fill="#333333">
                <tspan x="176.25" y="68.25">Shin-Onomichi</tspan>
            </text>
            <text id="Fukuyama" transform="translate(264.000000, 68.250000) rotate(-90.000000) translate(-264.000000, -68.250000) " font-family="SourceSansPro-Regular, Source Sans Pro" font-size="14" font-weight="normal" line-spacing="28" fill="#333333">
                <tspan x="196.25" y="68.25">Fukuyama</tspan>
            </text>
            <text id="Shin-Kurashiki" transform="translate(286.000000, 68.750000) rotate(-90.000000) translate(-286.000000, -68.750000) " font-family="SourceSansPro-Regular, Source Sans Pro" font-size="14" font-weight="normal" line-spacing="28" fill="#333333">
                <tspan x="218.25" y="68.75">Shin-Kurashiki</tspan>
            </text>
            <text id="Aioi" transform="translate(326.000000, 109.501985) rotate(-90.000000) translate(-326.000000, -109.501985) " font-family="SourceSansPro-Regular, Source Sans Pro" font-size="14" font-weight="normal" line-spacing="28" fill="#333333">
                <tspan x="299.498015" y="109.501985">Aioi</tspan>
            </text>
            <text id="Himeji" transform="translate(345.000000, 109.501985) rotate(-90.000000) translate(-345.000000, -109.501985) " font-family="SourceSansPro-Regular, Source Sans Pro" font-size="14" font-weight="normal" line-spacing="28" fill="#333333">
                <tspan x="318.498015" y="109.501985">Himeji</tspan>
            </text>
            <text id="Nishi-Akashi" transform="translate(366.000000, 96.761703) rotate(-90.000000) translate(-366.000000, -96.761703) " font-family="SourceSansPro-Regular, Source Sans Pro" font-size="14" font-weight="normal" line-spacing="28" fill="#333333">
                <tspan x="326.757732" y="96.7617026">Nishi-Akashi</tspan>
            </text>
            <text id="Kokura" font-family="SourceSansPro-Bold, Source Sans Pro" font-size="14" font-weight="bold" line-spacing="28" fill="#333333">
                <tspan x="0" y="162">Kokura</tspan>
            </text>
            <text id="Hiroshima" transform="translate(183.000000, 104.500000) rotate(-90.000000) translate(-183.000000, -104.500000) " font-family="SourceSansPro-Bold, Source Sans Pro" font-size="14" font-weight="bold" line-spacing="28" fill="#333333">
                <tspan x="150.5" y="104.5">Hiroshima</tspan>
            </text>
            <text id="Okayama" transform="translate(306.000000, 106.500000) rotate(-90.000000) translate(-306.000000, -106.500000) " font-family="SourceSansPro-Bold, Source Sans Pro" font-size="14" font-weight="bold" line-spacing="28" fill="#333333">
                <tspan x="276.5" y="106.5">Okayama</tspan>
            </text>
            <text id="Shin-Kobe" transform="translate(389.000000, 107.000000) rotate(-90.000000) translate(-389.000000, -107.000000) " font-family="SourceSansPro-Bold, Source Sans Pro" font-size="14" font-weight="bold" line-spacing="28" fill="#333333">
                <tspan x="357" y="107">Shin-Kobe</tspan>
            </text>
            <text id="Shin-Osaka" transform="translate(424.500000, 104.000000) rotate(-90.000000) translate(-424.500000, -104.000000) " font-family="SourceSansPro-Bold, Source Sans Pro" font-size="14" font-weight="bold" line-spacing="28" fill="#333333">
                <tspan x="389" y="104">Shin-Osaka</tspan>
            </text>
            <text id="Hakata-(Fukuoka)" font-family="SourceSansPro-Bold, Source Sans Pro" font-size="14" font-weight="bold" line-spacing="28" fill="#333333">
                <tspan x="69" y="201">Hakata (Fukuoka) </tspan>
            </text>
        </g>
        <g id="Legend" transform="translate(312.000000, 33.000000)">
            <line x1="130" y1="12" x2="147.507141" y2="12" id="Path-15-Copy-2" stroke="#CBCBCB" stroke-width="3"></line>
            <ellipse id="Oval-3-Copy-13" fill="#232323" cx="139.821856" cy="11.820632" rx="2.82185629" ry="2.82063201"></ellipse>
            <text id="Sakura-train" font-family="SourceSansPro-Bold, Source Sans Pro" font-size="14" font-weight="bold" line-spacing="28" fill="#CD9400">
                <tspan x="24" y="96">Sakura train</tspan>
            </text>
            <text id="Served-by-all-trains" font-family="SourceSansPro-Regular, Source Sans Pro" font-size="14" font-weight="normal" line-spacing="28" fill="#333333">
                <tspan x="154" y="15">Served by all trains</tspan>
            </text>
            <line x1="130" y1="31" x2="147.507141" y2="31" id="Path-15-Copy-2" stroke="#CBCBCB" stroke-width="3"></line>
            <line x1="130" y1="49" x2="147.507141" y2="49" id="Path-15-Copy-3" stroke="#CBCBCB" stroke-width="3"></line>
            <text id="Served-by-some-train" font-family="SourceSansPro-Regular, Source Sans Pro" font-size="14" font-weight="normal" line-spacing="28" fill="#333333">
                <tspan x="154" y="34">Served by some trains</tspan>
            </text>
            <text id="Not-served" font-family="SourceSansPro-Regular, Source Sans Pro" font-size="14" font-weight="normal" line-spacing="28" fill="#333333">
                <tspan x="154" y="52">Not served</tspan>
            </text>
            <ellipse id="Oval-3-Copy-13" stroke="#232323" cx="140" cy="30.9991323" rx="2" ry="1.99913229"></ellipse>
            <line x1="0" y1="92" x2="17.5071414" y2="92" id="Path-15" stroke="#CD9400" stroke-width="3"></line>
            <text id="Mizuho-train" font-family="SourceSansPro-Bold, Source Sans Pro" font-size="14" font-weight="bold" line-spacing="28" fill="#70CF00">
                <tspan x="24" y="76">Mizuho train</tspan>
            </text>
            <line x1="0" y1="72" x2="17.5071414" y2="72" id="Path-15" stroke="#70CF00" stroke-width="3"></line>
            <text id="Kodama-train" font-family="SourceSansPro-Bold, Source Sans Pro" font-size="14" font-weight="bold" line-spacing="28" fill="#FFAF00">
                <tspan x="24" y="56">Kodama train</tspan>
            </text>
            <line x1="0" y1="52" x2="17.5071414" y2="52" id="Path-15" stroke="#FFAF00" stroke-width="3"></line>
            <text id="Hikari-train" font-family="SourceSansPro-Bold, Source Sans Pro" font-size="14" font-weight="bold" line-spacing="28" fill="#33848E">
                <tspan x="24" y="36">Hikari train</tspan>
            </text>
            <line x1="0" y1="32" x2="17.5071414" y2="32" id="Path-15" stroke="#33848E" stroke-width="3"></line>
            <text id="Nozomi-train" font-family="SourceSansPro-Bold, Source Sans Pro" font-size="14" font-weight="bold" line-spacing="28" fill="#73D9DB">
                <tspan x="24" y="14">Nozomi train</tspan>
            </text>
            <line x1="0" y1="10" x2="17.5071414" y2="10" id="Path-15" stroke="#2FD5D6" stroke-width="3"></line>
        </g>
    </g>
</svg>